<svg width="190" height="131" viewBox="0 0 190 131" fill="none" xmlns="http://www.w3.org/2000/svg">
<g clip-path="url(#clip0_172_276)">
<path d="M141.22 84.53L141.29 0.959961H43.5104L43.4204 84.53H29.7104V88.59H47.4904V61.2599L67.9404 49.46V84.53H57.4104V70.2399H60.1804V81.75H64.2404V66.1799H53.3504V88.59H87.3904V34.2299L67.9404 23V43.1L72.0004 40.75V30.02L83.3304 36.56V84.53H72.0004V42.4299L62.1304 48.13V14.94H75.6304V25.77L79.7004 28.11V10.88H58.0704V50.47L47.4904 56.58L47.5704 5.02995H137.23L137.15 56.58L126.57 50.47V10.88H104.95V28.11L109.01 25.77V14.94H122.51V48.13L112.64 42.4299V84.53H101.32V36.56L112.64 30.02V40.75L116.7 43.1V23L97.2504 34.2299V63.1H88.8404V67.16H97.2504V88.59H131.3V66.1799H120.4V81.75H124.46V70.2399H127.24V84.53H116.7V49.46L137.15 61.2599V87.9299L137.16 88.59H154.94V84.53H141.22Z" fill="#C9A759"/>
<path d="M16.4104 96.7099H13.9604V113.41H16.4104V96.7099Z" fill="white"/>
<path d="M3.37041 96.7099H0.92041V113.41H3.37041V106.64H12.2404V104.37H3.37041V96.7099Z" fill="white"/>
<path d="M38.9004 99.11C38.1404 98.36 37.2404 97.75 36.2104 97.31C34.1404 96.42 31.6404 96.42 29.5804 97.31C28.5504 97.75 27.6504 98.36 26.9004 99.11C26.1504 99.87 25.5404 100.76 25.1004 101.78C24.6604 102.8 24.4304 103.91 24.4304 105.06C24.4304 105.86 24.5404 106.64 24.7504 107.39C24.9604 108.13 25.2604 108.84 25.6404 109.49C26.0204 110.15 26.5004 110.75 27.0504 111.27C27.6004 111.79 28.2204 112.24 28.9004 112.6L29.1404 112.73L30.7004 110.78L30.3204 110.6C29.8004 110.36 29.3204 110.04 28.9004 109.65C28.4704 109.26 28.0904 108.82 27.7804 108.34C27.4704 107.86 27.2304 107.34 27.0604 106.79C26.8904 106.24 26.8104 105.67 26.8104 105.09C26.8104 104.3 26.9704 103.53 27.3004 102.79C27.6204 102.05 28.0704 101.4 28.6204 100.85C29.1704 100.3 29.8304 99.85 30.5804 99.52C32.0704 98.86 33.8204 98.86 35.2904 99.52C36.0304 99.85 36.6804 100.3 37.2404 100.85C37.7904 101.4 38.2404 102.05 38.5604 102.79C38.8804 103.52 39.0504 104.3 39.0504 105.09C39.0504 105.67 38.9604 106.24 38.7804 106.79C38.6004 107.34 38.3504 107.87 38.0404 108.35C37.7304 108.83 37.3504 109.26 36.9204 109.64C36.4804 110.02 36.0104 110.34 35.5004 110.58L35.1704 110.74L36.4804 112.73L36.7404 112.6C37.4304 112.26 38.0704 111.83 38.6404 111.3C39.2104 110.78 39.7004 110.18 40.1104 109.54C40.5204 108.89 40.8404 108.18 41.0604 107.43C41.2804 106.67 41.4004 105.88 41.4004 105.06C41.4004 103.91 41.1704 102.8 40.7304 101.78C40.2904 100.76 39.6804 99.86 38.9304 99.11" fill="white"/>
<path d="M66.6806 99.7499V113.41H69.1406V96.7099H65.4706L59.2006 109.41L53.0006 96.7099H49.3806V113.41H51.8306V99.8899L59.1906 114.66L66.6806 99.7499Z" fill="white"/>
<path d="M90.1405 104.37H81.8005V106.64H90.1405V104.37Z" fill="white"/>
<path d="M90.3502 111.13H79.9302V98.9799H90.3502V96.7099H77.4802V113.41H90.3502V111.13Z" fill="white"/>
<path d="M111.56 111.13H101.14V96.7099H98.6902V113.41H111.56V111.13Z" fill="white"/>
<path d="M127.911 100.78L132.971 111.13H125.761L124.211 113.41H136.851L127.921 95.4599L118.901 113.41H121.641L127.911 100.78Z" fill="white"/>
<path d="M157.44 110.53L147.78 96.7099H144.27V113.41H146.73V99.5499L156.57 113.41H159.89V96.7099H157.44V110.53Z" fill="white"/>
<path d="M183.05 101.84C182.61 100.83 182 99.9299 181.25 99.1699C180.49 98.4099 179.59 97.7999 178.56 97.3599C177.53 96.9299 176.41 96.7099 175.24 96.7099H168.23V113.41H175.29C176.36 113.41 177.41 113.19 178.41 112.77C179.41 112.34 180.31 111.75 181.09 111.01C181.87 110.26 182.51 109.38 182.98 108.38C183.46 107.37 183.71 106.27 183.71 105.12C183.71 103.97 183.48 102.87 183.04 101.85M181.36 105.14C181.36 105.94 181.18 106.71 180.83 107.41C180.47 108.13 180 108.77 179.43 109.33C178.86 109.88 178.2 110.32 177.46 110.64C176.73 110.95 175.98 111.12 175.24 111.12H170.68V99.0499H175.26C176.08 99.0499 176.87 99.2199 177.61 99.5499C178.35 99.8799 179 100.34 179.56 100.9C180.11 101.46 180.56 102.12 180.88 102.86C181.2 103.6 181.37 104.37 181.37 105.16" fill="white"/>
<path d="M49.1903 126.49C49.3703 126.28 49.5102 126.03 49.6202 125.75C49.7302 125.47 49.7803 125.17 49.7803 124.86C49.7803 124.52 49.7302 124.2 49.6202 123.9C49.5102 123.6 49.3602 123.34 49.1702 123.12C48.9802 122.9 48.7603 122.72 48.5003 122.59C48.2403 122.45 47.9602 122.39 47.6702 122.39H42.7703V130.27H44.2302V123.77H47.5203C47.6303 123.77 47.7203 123.8 47.8003 123.85C47.9003 123.91 47.9803 124 48.0503 124.09C48.1303 124.2 48.1803 124.32 48.2203 124.45C48.2603 124.59 48.2803 124.71 48.2803 124.84C48.2803 124.95 48.2602 125.07 48.2302 125.2C48.2002 125.32 48.1503 125.43 48.0803 125.53C48.0103 125.63 47.9402 125.7 47.8402 125.76C47.7602 125.81 47.6702 125.83 47.5402 125.83H45.8903L48.1603 130.26H49.7602L48.1802 127.14C48.3002 127.11 48.4103 127.06 48.5203 127C48.7703 126.87 48.9902 126.69 49.1702 126.47" fill="white"/>
<path d="M59.1603 125.84H55.0403V127.22H59.1603V125.84Z" fill="white"/>
<path d="M53.0906 130.27H59.2506V128.89H54.5506V123.77H59.2506V122.39H53.0906V130.27Z" fill="white"/>
<path d="M62.1204 130.27H63.7604L66.4704 124.81L68.4704 128.89H65.4104L64.4704 130.27H70.7904L66.4804 121.6L62.1204 130.27Z" fill="white"/>
<path d="M75.1406 122.39H73.6706V130.27H79.8307V128.89H75.1406V122.39Z" fill="white"/>
<path d="M94.0802 125.84H89.9602V127.22H94.0802V125.84Z" fill="white"/>
<path d="M88.0105 130.27H94.1705V128.89H89.4705V123.77H94.1705V122.39H88.0105V130.27Z" fill="white"/>
<path d="M103.89 126.33C103.7 126.12 103.48 125.96 103.23 125.83C102.97 125.7 102.69 125.63 102.41 125.63H99.6305C99.3905 125.58 99.2305 125.49 99.1305 125.34C99.0205 125.18 98.9605 124.97 98.9605 124.71C98.9605 124.42 99.0405 124.19 99.1905 124.01C99.3305 123.84 99.5605 123.76 99.8805 123.76H104.37V122.38H99.5805C99.2905 122.38 99.0105 122.44 98.7505 122.55C98.4905 122.66 98.2705 122.83 98.0805 123.03C97.8905 123.24 97.7405 123.48 97.6305 123.77C97.5205 124.05 97.4705 124.37 97.4705 124.71C97.4705 125.02 97.5205 125.32 97.6305 125.59C97.7405 125.87 97.8905 126.11 98.0805 126.32C98.2705 126.53 98.4905 126.69 98.7405 126.82C99.0005 126.95 99.2804 127.02 99.5604 127.02L102.34 127.04C102.58 127.09 102.74 127.18 102.84 127.31C102.95 127.47 103 127.67 103 127.93C103 128.22 102.92 128.45 102.77 128.63C102.63 128.8 102.4 128.88 102.08 128.88H97.5904V130.26H102.38C102.67 130.26 102.94 130.2 103.2 130.09C103.46 129.98 103.68 129.81 103.87 129.61C104.06 129.41 104.21 129.16 104.32 128.87C104.43 128.58 104.49 128.27 104.49 127.93C104.49 127.63 104.44 127.33 104.33 127.06C104.22 126.78 104.07 126.53 103.88 126.32" fill="white"/>
<path d="M107.77 123.77H110.46V130.27H111.92V123.77H114.62V122.39H107.77V123.77Z" fill="white"/>
<path d="M115.73 130.27H117.36L120.08 124.81L122.07 128.89H119.01L118.07 130.27H124.4L120.08 121.6L115.73 130.27Z" fill="white"/>
<path d="M125.5 123.77H128.19V130.27H129.65V123.77H132.35V122.39H125.5V123.77Z" fill="white"/>
<path d="M141.791 125.84H137.671V127.22H141.791V125.84Z" fill="white"/>
<path d="M135.72 130.27H141.88V128.89H137.19V123.77H141.88V122.39H135.72V130.27Z" fill="white"/>
<path d="M184.8 96C184.21 96 183.64 95.88 183.1 95.66C182.58 95.44 182.11 95.12 181.71 94.72C181.31 94.32 180.99 93.8499 180.77 93.3299C180.54 92.7899 180.43 92.22 180.43 91.63C180.43 91.04 180.54 90.4699 180.77 89.9299C180.99 89.4099 181.31 88.94 181.71 88.54C182.11 88.14 182.58 87.82 183.1 87.6C183.64 87.37 184.21 87.26 184.8 87.26C185.39 87.26 185.96 87.37 186.5 87.6C187.02 87.82 187.49 88.14 187.89 88.54C188.29 88.94 188.61 89.4099 188.83 89.9299C189.06 90.4699 189.17 91.04 189.17 91.63C189.17 92.22 189.06 92.7899 188.83 93.3299C188.61 93.8499 188.29 94.32 187.89 94.72C187.49 95.12 187.02 95.44 186.5 95.66C185.96 95.89 185.39 96 184.8 96ZM184.8 87.48C182.51 87.48 180.65 89.34 180.65 91.63C180.65 93.92 182.51 95.7699 184.8 95.7699C187.09 95.7699 188.94 93.91 188.94 91.63C188.94 89.35 187.08 87.48 184.8 87.48Z" fill="white"/>
<path d="M184.53 91.24C184.8 91.24 184.99 91.19 185.1 91.09C185.22 90.99 185.28 90.83 185.28 90.6C185.28 90.37 185.22 90.21 185.1 90.12C184.99 90.02 184.79 89.97 184.53 89.97H183.99V91.24H184.53ZM183.99 92.12V94H182.71V89.04H184.66C185.31 89.04 185.79 89.15 186.09 89.37C186.4 89.59 186.55 89.94 186.55 90.41C186.55 90.74 186.47 91.01 186.31 91.22C186.15 91.43 185.92 91.58 185.6 91.68C185.77 91.72 185.93 91.81 186.07 91.95C186.21 92.09 186.35 92.3 186.49 92.59L187.19 94H185.83L185.22 92.77C185.1 92.52 184.97 92.35 184.85 92.26C184.73 92.17 184.56 92.12 184.35 92.12H183.99Z" fill="white"/>
</g>
<defs>
<clipPath id="clip0_172_276">
<rect width="190" height="131" fill="white"/>
</clipPath>
</defs>
</svg>
