<svg width="120" height="120" viewBox="0 0 120 120" fill="none" xmlns="http://www.w3.org/2000/svg">
<g clip-path="url(#clip0_172_278)">
<path d="M60 11.25C50.3582 11.25 40.9329 14.1091 32.916 19.4659C24.8991 24.8226 18.6507 32.4363 14.9609 41.3442C11.2711 50.2521 10.3057 60.0541 12.1867 69.5107C14.0678 78.9672 18.7108 87.6536 25.5286 94.4715C32.3464 101.289 41.0328 105.932 50.4894 107.813C59.9459 109.694 69.7479 108.729 78.6558 105.039C87.5637 101.349 95.1774 95.1009 100.534 87.084C105.891 79.0671 108.75 69.6418 108.75 60C108.734 47.0756 103.593 34.6853 94.4537 25.5464C85.3148 16.4074 72.9244 11.2661 60 11.25ZM77.0813 63.1219L54.5813 78.1219C53.9642 78.5309 53.2404 78.7493 52.5 78.75C51.5055 78.75 50.5516 78.3549 49.8484 77.6517C49.1451 76.9484 48.75 75.9946 48.75 75V45C48.7496 44.3209 48.9335 43.6545 49.2823 43.0718C49.631 42.4891 50.1314 42.012 50.7301 41.6915C51.3287 41.371 52.0032 41.2191 52.6815 41.252C53.3598 41.2848 54.0164 41.5012 54.5813 41.8781L77.0813 56.8781C77.5956 57.2204 78.0175 57.6846 78.3092 58.2292C78.601 58.7738 78.7537 59.3821 78.7537 60C78.7537 60.6179 78.601 61.2262 78.3092 61.7708C78.0175 62.3154 77.5956 62.7796 77.0813 63.1219Z" fill="white" fill-opacity="0.64"/>
</g>
<defs>
<clipPath id="clip0_172_278">
<rect width="120" height="120" fill="white"/>
</clipPath>
</defs>
</svg>
