<svg width="126" height="88" viewBox="0 0 126 88" fill="none" xmlns="http://www.w3.org/2000/svg">
<g clip-path="url(#clip0_149_319)">
<path d="M111.52 83.56L111.58 0H13.8L13.71 83.56H0V87.62H17.79V60.3L38.23 48.49V83.56H27.7V69.28H30.47V80.79H34.54V65.22H23.64V87.62H57.68V33.26L38.23 22.04V42.13L42.3 39.79V29.06L53.62 35.6V83.56H42.3V41.46L32.43 47.16V13.97H45.93V24.8L49.99 27.15V9.91H28.36V49.51L17.79 55.61L17.86 4.06H107.52L107.45 55.62L96.87 49.51V9.91H75.24V27.15L79.3 24.8V13.97H92.8V47.16L82.93 41.46V83.56H71.61V35.6L82.93 29.06V39.79L86.99 42.13V22.04L67.55 33.26V62.14H59.13V66.2H67.54V86.97L67.55 87.62H101.59V65.22H90.69V80.79H94.76V69.28H97.53V83.56H86.99V48.49L107.45 60.3V86.97L107.46 87.62H125.23V83.56H111.52Z" fill="#C9A759"/>
</g>
<defs>
<clipPath id="clip0_149_319">
<rect width="125.23" height="87.62" fill="white"/>
</clipPath>
</defs>
</svg>
