<svg width="242" height="186" viewBox="0 0 242 186" fill="none" xmlns="http://www.w3.org/2000/svg">
<path d="M327.145 196.859L327.32 -48.0327H41.0474L40.7839 196.859H0.644775V208.758H52.729V128.69L112.572 94.0783V196.859H81.7427V155.008H89.8525V188.741H101.768V143.109H69.8562V208.758H169.516V49.4433L112.572 16.5605V75.4388L124.488 68.5809V37.1342L157.629 56.3012V196.859H124.488V73.4753L95.5909 90.1804V-7.09045H135.115V24.6493L147.002 31.5365V-18.9892H83.675V97.0676L52.729 114.945L52.9339 -36.134H315.434L315.229 114.974L284.253 97.0676V-18.9892H220.927V31.5365L232.813 24.6493V-7.09045H272.338V90.1804L243.441 73.4753V196.859H210.299V56.3012L243.441 37.1342V68.5809L255.327 75.4388V16.5605L198.413 49.4433V134.083H173.761V145.981H198.383V206.853L198.413 208.758H298.072V143.109H266.16V188.741H278.076V155.008H286.186V196.859H255.327V94.0783L315.229 128.69V206.853L315.258 208.758H367.284V196.859H327.145Z" fill="#C9A759"/>
</svg>
